<svg width="91" height="141" viewBox="0 0 91 141" fill="none" xmlns="http://www.w3.org/2000/svg">
<path d="M15.3925 2.30044C18.4483 -0.766816 23.4026 -0.766813 26.4583 2.30044L88.7082 64.7854C91.7639 67.8526 91.7639 72.8256 88.7082 75.8929L75.7267 88.9234C72.671 91.9906 67.7167 91.9906 64.661 88.9234L2.41105 26.4385C-0.644668 23.3712 -0.644666 18.3982 2.41106 15.3309L15.3925 2.30044Z" fill="#7A7A7A"/>
<path d="M88.5889 65.1071C91.6447 68.1744 91.6447 73.1474 88.5889 76.2147L26.339 138.7C23.2833 141.767 18.329 141.767 15.2733 138.7L2.29179 125.669C-0.763932 122.602 -0.763929 117.629 2.29179 114.562L64.5417 52.0766C67.5974 49.0094 72.5517 49.0094 75.6075 52.0766L88.5889 65.1071Z" fill="#7A7A7A"/>
</svg>